<?xml version="1.0" standalone="no"?>
<!DOCTYPE svg PUBLIC "-//W3C//DTD SVG 20010904//EN"
 "http://www.w3.org/TR/2001/REC-SVG-20010904/DTD/svg10.dtd">
<svg version="1.0" xmlns="http://www.w3.org/2000/svg"
 width="700.000000pt" height="700.000000pt" viewBox="0 0 700.000000 700.000000"
 preserveAspectRatio="xMidYMid meet">
<metadata>
Created by potrace 1.14, written by Peter Selinger 2001-2017
</metadata>
<g transform="translate(0.000000,700.000000) scale(0.100000,-0.100000)"
fill="#000000" stroke="none">
<path d="M3457 6564 c-1 -1 -57 -4 -124 -7 -135 -7 -261 -21 -368 -42 -38 -8
-83 -16 -100 -19 -16 -3 -40 -8 -52 -11 -13 -3 -32 -7 -42 -9 -65 -15 -282
-84 -371 -118 -703 -273 -1267 -779 -1621 -1454 -146 -279 -245 -577 -303
-916 -32 -187 -46 -517 -31 -708 10 -121 38 -327 50 -370 3 -8 7 -32 10 -52 3
-20 19 -85 36 -145 16 -59 31 -115 33 -123 2 -8 25 -73 51 -145 339 -934 1138
-1659 2105 -1909 388 -100 773 -123 1175 -70 99 13 132 18 240 39 17 3 87 21
157 40 606 164 1137 504 1544 989 78 92 244 317 244 330 0 3 20 36 43 74 53
82 172 324 220 448 33 84 111 327 121 377 3 12 14 65 25 117 21 100 23 117 40
245 30 229 30 527 1 750 -92 692 -390 1303 -870 1785 -441 442 -1040 757
-1625 854 -152 25 -244 36 -361 42 -123 6 -225 10 -227 8z m-107 -306 c3 -3 5
-64 4 -135 -2 -123 -3 -133 -44 -248 -23 -66 -75 -214 -115 -330 -40 -115
-101 -289 -135 -385 -34 -96 -71 -202 -82 -235 -11 -33 -23 -69 -28 -80 -5
-11 -32 -87 -60 -170 -28 -82 -59 -170 -68 -195 -9 -25 -30 -85 -47 -135 l-30
-89 -135 -48 c-74 -26 -207 -72 -295 -102 -88 -31 -218 -76 -290 -102 -122
-43 -202 -71 -745 -261 -290 -101 -281 -99 -400 -97 -167 3 -152 -1 -146 42 3
20 8 67 11 104 3 37 7 75 9 85 2 10 7 40 10 66 9 59 10 65 30 148 8 37 17 79
20 93 18 99 112 357 189 516 72 150 207 372 288 474 243 306 536 565 819 723
370 207 727 323 1105 359 39 3 71 7 73 9 6 5 57 0 62 -7z m440 -3 c36 -3 76
-7 90 -10 14 -2 52 -9 85 -14 200 -34 363 -79 550 -153 91 -36 312 -141 360
-171 281 -177 372 -245 530 -397 248 -239 423 -474 571 -770 127 -252 223
-549 260 -800 4 -30 8 -57 9 -60 1 -3 5 -43 9 -90 4 -47 10 -97 11 -112 2 -16
-1 -28 -8 -29 -7 -1 -64 -2 -127 -3 l-115 -2 -225 77 c-124 43 -317 110 -430
149 -113 40 -254 89 -315 110 -60 21 -189 66 -285 100 -96 34 -206 72 -245 86
-38 13 -113 39 -165 58 l-94 33 -19 54 c-11 30 -39 110 -63 179 -24 69 -66
190 -94 270 -28 80 -55 156 -59 170 -11 34 -147 419 -176 500 -13 36 -63 178
-111 315 l-87 250 -1 130 c-1 77 3 133 9 137 5 4 23 5 40 3 16 -2 59 -7 95
-10z m-2665 -2944 c66 -24 221 -78 345 -121 333 -116 920 -322 950 -333 8 -3
58 -20 110 -38 52 -18 122 -42 154 -54 l59 -21 44 -125 c25 -68 83 -234 130
-369 125 -362 156 -450 213 -610 29 -80 55 -156 60 -170 4 -14 40 -117 80
-230 40 -113 75 -216 79 -230 5 -20 7 -215 2 -267 -1 -9 -12 -11 -33 -8 -18 2
-64 7 -103 10 -74 6 -81 7 -215 31 -306 55 -670 189 -887 327 -24 15 -45 27
-49 27 -7 0 -227 149 -234 159 -3 4 -27 24 -55 45 -151 114 -391 360 -485 496
-13 19 -27 37 -30 40 -4 3 -29 39 -57 80 -262 393 -416 821 -459 1275 -3 39
-8 81 -9 95 -1 14 -1 27 0 30 2 3 63 5 137 4 130 -1 136 -2 253 -43z m5139 19
c-1 -48 -14 -193 -18 -199 -2 -3 -7 -31 -10 -62 -8 -64 -7 -63 -35 -184 -179
-793 -708 -1475 -1432 -1846 -228 -118 -373 -172 -629 -234 -52 -13 -111 -26
-130 -30 -19 -3 -46 -8 -60 -10 -34 -7 -92 -14 -175 -21 -38 -4 -82 -8 -97 -9
-15 -1 -28 3 -30 9 -2 6 -3 67 -2 136 l1 125 153 435 c84 239 165 471 180 515
26 74 84 240 222 634 l54 155 125 43 c68 24 156 55 194 68 111 38 374 131 440
154 33 12 85 30 115 40 30 10 186 65 345 121 539 190 522 185 665 185 l125 -1
-1 -24z"/>
</g>
</svg>
